
<svg
   xmlns:rdf="http://www.w3.org/1999/02/22-rdf-syntax-ns#"
   xmlns:svg="http://www.w3.org/2000/svg"
   xmlns="http://www.w3.org/2000/svg"
   viewBox="0 0 100 100"
   version="1.1">
  <path
     style="display:inline;fill:#dec4c4;fill-opacity:1;stroke:#000000;stroke-width:0.548;stroke-miterlimit:4;stroke-dasharray:none;stroke-opacity:1"
     d="m 12.74728,89.412798 c -1.147088,-0.291758 -2.156703,-1.240868 -2.507983,-2.357681 -0.184575,-0.586812 -0.203386,-0.940542 -0.136409,-2.565209 0.592664,-14.376469 8.799437,-27.23827 21.640251,-33.914986 2.719711,-1.414143 5.806344,-2.583769 8.585482,-3.253319 0.722368,-0.174033 1.392707,-0.344054 1.489642,-0.377822 0.107886,-0.03758 -0.227401,-0.286869 -0.864459,-0.642722 -4.538744,-2.535292 -7.77914,-6.524975 -9.226214,-11.359623 -0.592413,-1.979241 -0.707954,-2.869893 -0.702916,-5.418492 0.004,-2.013935 0.04683,-2.584377 0.273555,-3.641692 0.388631,-1.81236 0.876747,-3.207045 1.692408,-4.83569 4.217077,-8.420308 13.947717,-12.5110031 22.839937,-9.601755 6.612423,2.163372 11.382728,7.513808 12.872038,14.437445 0.230429,1.071236 0.269678,1.609928 0.269678,3.701392 0,2.073448 -0.0401,2.632951 -0.262288,3.659334 -0.867753,4.008592 -2.762843,7.39459 -5.688743,10.164199 -1.216231,1.151264 -2.126634,1.819162 -3.788113,2.77907 -0.683725,0.395018 -1.140726,0.726039 -1.0451,0.757003 0.09347,0.03026 0.830157,0.221151 1.637093,0.424195 17.026163,4.284188 29.345114,19.491775 30.071973,37.123463 0.06698,1.624667 0.04817,1.978397 -0.136408,2.565209 -0.265255,0.843312 -0.951973,1.648658 -1.776857,2.083801 l -0.611727,0.322698 h -4.358091 c -4.295217,0 -4.366061,-0.0039 -4.910586,-0.272208 -0.753612,-0.371294 -1.397199,-1.025092 -1.722312,-1.749638 -0.214716,-0.478516 -0.28742,-0.916877 -0.347866,-2.097446 -0.289117,-5.646652 -1.898758,-10.347142 -5.006852,-14.621061 l -0.609057,-0.837509 -0.06462,8.415834 c -0.05108,6.652278 -0.09848,8.507758 -0.226197,8.854507 -0.290859,0.789672 -0.976811,1.55999 -1.733942,1.947201 l -0.704549,0.36032 H 50 32.311953 l -0.704549,-0.36032 c -0.757131,-0.387211 -1.443083,-1.157529 -1.733942,-1.947201 -0.127717,-0.346749 -0.175116,-2.202229 -0.226197,-8.854507 l -0.06462,-8.415834 -0.609057,0.837509 c -3.0984,4.260588 -4.718636,8.992021 -5.006852,14.621061 -0.06055,1.182666 -0.132993,1.618574 -0.348954,2.099822 -0.336239,0.749282 -0.931553,1.358751 -1.69364,1.73391 -0.574863,0.282991 -0.617128,0.28575 -4.699371,0.306704 -2.26561,0.01163 -4.280481,-0.01985 -4.47749,-0.06996 z"
     id="Body" />
  <g
     id="Nose"
     style="display:inline">
    <ellipse
       style="display:none;fill:#dec4c4;fill-opacity:1;stroke:#000000;stroke-width:0.548;stroke-miterlimit:4;stroke-dasharray:none;stroke-opacity:1"
       id="Nose_1"
       cx="50.028492"
       cy="31.282734"
       rx="2.6267943"
       ry="1.1939975" />
    <path
       style="display:none;fill:none;stroke:#000000;stroke-width:0.6;stroke-linecap:butt;stroke-linejoin:miter;stroke-miterlimit:4;stroke-dasharray:none;stroke-opacity:1"
       d="m 50.864292,28.297739 c 0.716398,4.77599 0.716398,4.77599 0.716398,4.77599 L 49.550894,32.47673"
       id="Nose_2" />
  </g>
  <g
     id="Mouth"
     style="display:inline">
    <path
       style="display:none;fill:none;stroke:#000000;stroke-width:1px;stroke-linecap:butt;stroke-linejoin:miter;stroke-opacity:1"
       d="m 41.670511,37.49152 c 0.482266,8.7376 13.924573,7.641219 16.775664,1.701446"
       id="Mouth_1" />
    <path
       style="display:none;fill:none;stroke:#000000;stroke-width:1px;stroke-linecap:butt;stroke-linejoin:miter;stroke-opacity:1"
       d="m 43.580907,40.476514 c 4.389739,0.193304 8.783717,0.596998 13.372771,0.596998"
       id="Mouth_2" />
  </g>
  <g
     id="Eyes"
     style="display:inline">
    <g
       id="Eyes_1"
       style="display:none">
      <g
         id="L"
         transform="matrix(1.0548529,0,0,1.1105101,-2.1321784,-2.1811371)">
        <ellipse
           style="fill:#110000;fill-opacity:1;stroke:#000000;stroke-width:0.6;stroke-miterlimit:4;stroke-dasharray:none;stroke-opacity:1"
           id="path892"
           cx="42.404148"
           cy="23.471087"
           rx="1.0342475"
           ry="0.92871207" />
        <path
           style="fill:none;stroke:#000000;stroke-width:1px;stroke-linecap:butt;stroke-linejoin:miter;stroke-opacity:1"
           d="m 39.461616,23.4322 c 1.280176,-1.625453 4.00754,-2.57196 5.313289,-0.462674"
           id="path894" />
      </g>
      <g
         id="R"
         transform="matrix(-1.0548529,0,0,1.1105101,102.83517,-2.1811371)">
        <ellipse
           style="fill:#110000;fill-opacity:1;stroke:#000000;stroke-width:0.6;stroke-miterlimit:4;stroke-dasharray:none;stroke-opacity:1"
           id="path892-2"
           cx="42.404148"
           cy="23.471087"
           rx="1.0342475"
           ry="0.92871207" />
        <path
           style="fill:none;stroke:#000000;stroke-width:1px;stroke-linecap:butt;stroke-linejoin:miter;stroke-opacity:1"
           d="m 39.461616,23.4322 c 1.280176,-1.625453 4.00754,-2.57196 5.313289,-0.462674"
           id="path894-9" />
      </g>
    </g>
    <g
       id="Eyes_2"
       style="display:none">
      <path
         id="Eye2L"
         style="fill:none;stroke:#000000;stroke-width:0.872516px;stroke-linecap:butt;stroke-linejoin:miter;stroke-opacity:1"
         d="m 42.536159,23.40235 -2.952874,-1.746982 m 2.952874,1.746982 -2.955144,1.850696 m 3.343193,-1.850696 -3.790942,0.02985" />
      <path
         id="Eye2R"
         style="fill:none;stroke:#000000;stroke-width:0.872516px;stroke-linecap:butt;stroke-linejoin:miter;stroke-opacity:1"
         d="m 57.521315,23.40235 2.952874,-1.746982 m -2.952874,1.746982 2.955144,1.850696 m -3.343193,-1.850696 3.790942,0.02985" />
    </g>
  </g>
</svg>
